<svg width="1722" height="1722" viewBox="0 0 1722 1722" fill="none" xmlns="http://www.w3.org/2000/svg">
<circle cx="861" cy="861" r="861" fill="#3270A9"/>
<path fill-rule="evenodd" clip-rule="evenodd" d="M879.201 248.473H821.484L784.427 586.032H581.587C526.899 586.032 477.79 619.527 457.832 670.444L348.086 950.408L515.699 924.464V950.408L627.635 924.464V950.408H782.422C821.06 950.408 852.383 919.086 852.383 880.448V589.821C852.383 576.62 863.086 565.918 876.286 565.918H926.424L879.201 248.473ZM534.146 709.241C546.184 678.529 575.807 658.324 608.797 658.324H772.138V839.232C772.138 861.202 755.281 879.497 733.387 881.291L654.745 887.735V861.792L554.104 887.735V861.792L467.948 878.116L534.146 709.241Z" fill="white"/>
<path fill-rule="evenodd" clip-rule="evenodd" d="M1263.26 670.444C1243.3 619.527 1194.19 586.032 1139.51 586.032H884.71C875.874 586.032 868.71 593.195 868.71 602.032V878.725C868.71 880.68 868.792 882.615 868.947 884.529H868.71V903.185C868.71 942.467 836.864 974.311 797.584 974.311H784.758L868.71 1573.05L935.332 948.609C936.999 948.687 938.679 948.706 940.374 948.665L1096.37 950.408V914.553L1196.36 950.408V914.553L1373.01 950.408L1263.26 670.444ZM1181.91 706.327C1169.87 675.614 1140.25 655.409 1107.26 655.409H943.917V836.317C943.917 858.287 960.774 876.582 982.669 878.376L1061.31 884.82V858.877L1161.95 884.82V858.877L1248.11 875.201L1181.91 706.327Z" fill="white"/>
<path d="M852 272.539C888.152 272.539 917.539 243.463 917.539 207.5C917.539 171.537 888.152 142.461 852 142.461C815.848 142.461 786.461 171.537 786.461 207.5C786.461 243.463 815.848 272.539 852 272.539Z" fill="white" stroke="#3270A9" stroke-width="11.077"/>
<path d="M864.455 1340.86C1006.31 1363.8 747.85 1420.4 803.121 1503.06C828.853 1435.97 882.816 1450.71 933.468 1402.11C984.12 1353.5 939.912 1316.44 854.443 1309.93C768.974 1303.42 754.217 1237.61 827.144 1234.28C900.072 1230.95 950.144 1227.58 1047.14 1148.78C1122.4 1087.64 1029.33 1031.48 933.477 1018.9L926.804 1068.16C934.684 1063.15 926.804 1070.2 962.08 1079.64C1057.99 1105.28 920.436 1191.71 818.859 1200C688.145 1210.66 673.146 1309.93 864.455 1340.86Z" fill="white" stroke="#3270A9" stroke-width="6.41302"/>
<path d="M854.545 1341.36C712.688 1364.29 971.15 1420.89 915.879 1503.56C890.147 1436.46 836.184 1451.21 785.532 1402.6C734.88 1353.99 779.088 1316.93 864.557 1310.43C950.026 1303.92 964.783 1238.1 891.856 1234.78C818.928 1231.45 768.856 1228.07 671.856 1149.28C596.598 1088.14 689.672 1031.97 785.523 1019.39L792.196 1068.66C784.316 1063.64 792.196 1070.7 756.92 1080.13C661.014 1105.77 798.564 1192.21 900.141 1200.49C1030.86 1211.15 1045.85 1310.43 854.545 1341.36Z" fill="white" stroke="#3270A9" stroke-width="6.41302"/>
</svg>
